<!--?xml version="1.0" standalone="no"?-->
              <svg id="sw-js-blob-svg" viewBox="0 0 100 100" xmlns="http://www.w3.org/2000/svg" version="1.1">
                    <defs> 
                        <linearGradient id="sw-gradient" x1="0" x2="1" y1="1" y2="0">
                            <stop id="stop1" stop-color="rgba(248, 117, 55, 1)" offset="0%"></stop>
                            <stop id="stop2" stop-color="rgba(251, 168, 31, 1)" offset="100%"></stop>
                        </linearGradient>
                    </defs>
                <path fill="url(#sw-gradient)" d="M18.6,-26.6C22.5,-22.7,23.1,-15.2,19.8,-10.1C16.4,-4.9,9.1,-2.2,6.3,0.7C3.6,3.7,5.4,6.8,5.1,6.8C4.8,6.8,2.4,3.7,0.7,2.7C-1,1.7,-2,2.9,-8.1,4.8C-14.2,6.7,-25.5,9.3,-32,6.4C-38.5,3.4,-40.2,-5.1,-38,-12.5C-35.8,-19.8,-29.5,-25.9,-22.5,-28.8C-15.5,-31.7,-7.8,-31.3,-0.2,-31C7.3,-30.7,14.6,-30.5,18.6,-26.6Z" width="100%" height="100%" transform="translate(50 50)" stroke-width="0" style="transition: all 0.3s ease 0s;" stroke="url(#sw-gradient)"></path>
              </svg>